<?xml version="1.0" encoding="utf-8"?>
<!-- Generator: Adobe Illustrator 26.4.1, SVG Export Plug-In . SVG Version: 6.00 Build 0)  -->
<svg version="1.1" id="Layer_1" xmlns="http://www.w3.org/2000/svg" xmlns:xlink="http://www.w3.org/1999/xlink" x="0px" y="0px"
	 viewBox="0 0 9.7 9.8" style="enable-background:new 0 0 9.7 9.8;" xml:space="preserve">
<style type="text/css">
	.st0{fill:#3B8AF4;}
	.st1{fill:#FFB819;}
	.st2{fill:#F73131;}
</style>
<g>
	<g>
		<g>
			<path class="st0" d="M3.9,9.3L1.1,9.7C0.8,9.8,0.5,9.6,0.5,9.3L0,6.4C0,6.1,0.2,5.9,0.5,5.8l2.8-0.5c0.3-0.1,0.6,0.2,0.6,0.5
				l0.5,2.8C4.4,8.9,4.2,9.2,3.9,9.3z"/>
		</g>
		<g>
			<g>
				<g>
					<path class="st1" d="M7.5,9.6l-0.1,0c-1.2,0-2.2-1-2.2-2.2l0-0.1c0-1.2,1-2.2,2.2-2.2l0.1,0c1.2,0,2.2,1,2.2,2.2l0,0.1
						C9.6,8.6,8.7,9.6,7.5,9.6z"/>
				</g>
			</g>
		</g>
	</g>
	<path class="st2" d="M3.9,0.2L0.6,3.7C0.2,4.1,0.5,4.6,1,4.6l7.3-0.7c0.5,0,0.6-0.6,0.3-0.9L4.6,0.1C4.4-0.1,4.1,0,3.9,0.2z"/>
</g>
</svg>
