<svg width="12" height="12" viewBox="0 0 12 12" fill="none" xmlns="http://www.w3.org/2000/svg">
<path id="Icon" fill-rule="evenodd" clip-rule="evenodd" d="M3.25 0.5C2.8703 0.5 2.5625 0.807804 2.5625 1.1875V1.875H1.875C1.11561 1.875 0.5 2.49061 0.5 3.25V10.125C0.5 10.8844 1.11561 11.5 1.875 11.5H10.125C10.8844 11.5 11.5 10.8844 11.5 10.125V3.25C11.5 2.49061 10.8844 1.875 10.125 1.875H9.4375V1.1875C9.4375 0.807804 9.1297 0.5 8.75 0.5C8.3703 0.5 8.0625 0.807804 8.0625 1.1875V1.875H3.9375V1.1875C3.9375 0.807804 3.6297 0.5 3.25 0.5ZM3.25 3.9375C2.8703 3.9375 2.5625 4.2453 2.5625 4.625C2.5625 5.0047 2.8703 5.3125 3.25 5.3125H8.75C9.1297 5.3125 9.4375 5.0047 9.4375 4.625C9.4375 4.2453 9.1297 3.9375 8.75 3.9375H3.25Z" fill="#99A3AD"/>
</svg>
