<svg width="99" height="30" viewBox="0 0 99 30" fill="none" xmlns="http://www.w3.org/2000/svg">
<rect width="99" height="30" rx="15" fill="#FFE135"/>
<path d="M18.0001 9.66602V20.3327M23.3334 14.9993L12.6667 14.9993" stroke="#212529" stroke-width="1.4" stroke-linecap="round" stroke-linejoin="round"/>
<path d="M40.8291 19.6572H30.4189V18.6543H35.002V16.0264H31.6123V10.6182H39.585V16.0264H36.1953V18.6543H40.8291V19.6572ZM38.4043 15.0742V11.583H32.7803V15.0742H38.4043ZM45.6091 11.5195C45.6091 11.9893 45.7255 12.4399 45.9583 12.8716C46.191 13.3032 46.5232 13.6841 46.9548 14.0142C47.3865 14.34 47.8901 14.5876 48.4656 14.7568L47.8562 15.6963C47.2003 15.4932 46.6269 15.1864 46.136 14.7759C45.6451 14.3612 45.2685 13.8724 45.0061 13.3096C44.748 13.9147 44.3713 14.4416 43.8762 14.8901C43.3811 15.3387 42.795 15.6751 42.1179 15.8994L41.5086 14.9473C42.0883 14.7695 42.594 14.5072 43.0256 14.1602C43.4615 13.8089 43.7979 13.4048 44.0349 12.9478C44.2719 12.4907 44.3904 12.0146 44.3904 11.5195V11.3926H41.8386V10.415H48.1101V11.3926H45.6091V11.5195ZM43.3875 16.3945H44.5681V17.6641H49.6336V16.3945H50.8269V20.9395H43.3875V16.3945ZM49.6336 19.9619V18.6162H44.5681V19.9619H49.6336ZM49.6209 9.7041H50.8269V15.8613H49.6209V9.7041ZM61.4595 10.9355V11.2593C61.4595 11.6951 61.4426 12.1226 61.4087 12.5415C61.3791 12.9562 61.3156 13.4027 61.2183 13.8809H62.7798V14.8457H52.3696V13.8809H60.0059C60.1117 13.3646 60.1815 12.8927 60.2154 12.4653C60.2492 12.0379 60.2661 11.5999 60.2661 11.1514H53.6773V10.1865H61.4595V10.9355ZM53.5884 15.8613H61.4722V18.8447H54.8071V20H61.7642V20.9648H53.6011V17.918H60.2788V16.8262H53.5884V15.8613ZM76.6436 16.0391H66.2588V15.0488H76.6436V16.0391ZM67.4903 18.9971C67.4903 18.5612 67.6468 18.1888 67.96 17.8799C68.2732 17.5667 68.7259 17.3298 69.3184 17.1689C69.9108 17.0081 70.6176 16.9277 71.4385 16.9277C72.2552 16.9277 72.9556 17.0081 73.5396 17.1689C74.1278 17.3298 74.5785 17.5667 74.8916 17.8799C75.2048 18.1888 75.3614 18.5612 75.3614 18.9971C75.3614 19.4329 75.2048 19.8053 74.8916 20.1143C74.5785 20.4232 74.1278 20.6559 73.5396 20.8125C72.9556 20.9733 72.2552 21.0537 71.4385 21.0537C70.6176 21.0537 69.9108 20.9733 69.3184 20.8125C68.7259 20.6559 68.2732 20.4232 67.96 20.1143C67.6468 19.8053 67.4903 19.4329 67.4903 18.9971ZM67.5537 10.1104H75.3614V11.1006H68.7471V13.0811H75.4375V14.0586H67.5537V10.1104ZM68.709 18.9971C68.7048 19.361 68.9397 19.6403 69.4136 19.835C69.8876 20.0254 70.5625 20.1227 71.4385 20.127C72.3018 20.1227 72.9704 20.0254 73.4444 19.835C73.9183 19.6403 74.1553 19.361 74.1553 18.9971C74.1553 18.6374 73.9183 18.3602 73.4444 18.1655C72.9704 17.9666 72.3018 17.863 71.4385 17.8545C70.5668 17.863 69.8918 17.9666 69.4136 18.1655C68.9397 18.3602 68.7048 18.6374 68.709 18.9971ZM87.6316 16.8896H77.2215V15.9121H81.8299V14.833H78.5545V11.9385H85.118V10.9229H78.5291V9.9707H86.324V12.8271H79.7479V13.8936H86.5525V14.833H83.0232V15.9121H87.6316V16.8896ZM78.3895 17.6895H86.3875V20.9902H85.1688V18.6543H78.3895V17.6895Z" fill="#212529"/>
</svg>
