<svg width="22" height="22" viewBox="0 0 22 22" fill="none" xmlns="http://www.w3.org/2000/svg">
<path id="Exclude" fill-rule="evenodd" clip-rule="evenodd" d="M0.5 19.6163V10.0756C0.5 9.55293 0.720079 9.05377 1.10761 8.69747L9.47374 1.00556C10.1939 0.343457 11.3062 0.330132 12.0424 0.974789L20.858 8.69404C21.2663 9.05153 21.5 9.56434 21.5 10.1029V19.6163C21.5 20.6566 20.6452 21.5 19.5909 21.5H2.40909C1.35473 21.5 0.5 20.6566 0.5 19.6163ZM13.8636 15.7726L13.8636 15.7809V21.4998H8.13634V15.7726H8.13635C8.13636 14.1911 9.41845 12.909 11 12.909C12.5815 12.909 13.8636 14.1911 13.8636 15.7726Z" fill="#212529"/>
</svg>
