<svg width="160" height="98" viewBox="0 0 160 98" fill="none" xmlns="http://www.w3.org/2000/svg">
<g clip-path="url(#clip0_325_13368)">
<path d="M73.8145 55.1004L57.2145 57.5004C55.4145 58.1004 53.7145 56.9004 53.7145 55.1004L50.8145 38.0004C50.8145 36.2004 52.0145 35.1004 53.7145 34.5004L70.2145 31.6004C72.0145 31.0004 73.7145 32.8004 73.7145 34.5004L76.7145 51.0004C76.7145 52.8004 75.5145 54.5004 73.8145 55.1004Z" fill="#3B8AF4"/>
<path d="M95.0141 56.9003H94.4141C87.3141 56.9003 81.4141 51.0003 81.4141 43.9003V43.3003C81.4141 36.2003 87.3141 30.3003 94.4141 30.3003H95.0141C102.114 30.3003 108.014 36.2003 108.014 43.3003V43.9003C107.414 51.0003 102.114 56.9003 95.0141 56.9003Z" fill="#FFB819"/>
<path d="M73.8143 1.5002L54.3143 22.1002C51.9143 24.5002 53.7143 27.4002 56.7143 27.4002L99.7143 23.3002C102.614 23.3002 103.214 19.8002 101.514 18.0002L77.9143 0.900196C76.7143 -0.299804 74.9143 0.300196 73.8143 1.5002Z" fill="#F73131"/>
</g>
<path d="M14.4447 77.1278C14.4447 78.2258 14.1927 79.2338 13.6887 80.1518C13.1847 81.0517 12.4107 81.7807 11.3667 82.3387C10.3228 82.8967 9.02678 83.1757 7.47882 83.1757H4.61689V89.9795H0V71.026H7.47882C8.99079 71.026 10.2688 71.287 11.3127 71.809C12.3567 72.3309 13.1397 73.0509 13.6617 73.9689C14.1837 74.8869 14.4447 75.9399 14.4447 77.1278ZM7.12783 79.5038C8.00981 79.5038 8.66679 79.2968 9.09878 78.8828C9.53077 78.4688 9.74677 77.8838 9.74677 77.1278C9.74677 76.3718 9.53077 75.7869 9.09878 75.3729C8.66679 74.9589 8.00981 74.7519 7.12783 74.7519H4.61689V79.5038H7.12783Z" fill="#212529"/>
<path d="M21.4651 70V89.9795H16.8482V70H21.4651Z" fill="#212529"/>
<path d="M23.893 82.4197C23.893 80.8717 24.1809 79.5128 24.7569 78.3428C25.3509 77.1728 26.1519 76.2729 27.1599 75.6429C28.1679 75.0129 29.2928 74.6979 30.5348 74.6979C31.5968 74.6979 32.5238 74.9139 33.3157 75.3459C34.1257 75.7779 34.7467 76.3448 35.1787 77.0468V74.9139H39.7956V89.9795H35.1787V87.8466C34.7287 88.5486 34.0987 89.1155 33.2887 89.5475C32.4967 89.9795 31.5698 90.1955 30.5078 90.1955C29.2838 90.1955 28.1679 89.8805 27.1599 89.2505C26.1519 88.6026 25.3509 87.6936 24.7569 86.5236C24.1809 85.3356 23.893 83.9677 23.893 82.4197ZM35.1787 82.4467C35.1787 81.2947 34.8547 80.3858 34.2067 79.7198C33.5767 79.0538 32.8027 78.7208 31.8848 78.7208C30.9668 78.7208 30.1838 79.0538 29.5358 79.7198C28.9058 80.3678 28.5908 81.2677 28.5908 82.4197C28.5908 83.5717 28.9058 84.4897 29.5358 85.1736C30.1838 85.8396 30.9668 86.1726 31.8848 86.1726C32.8027 86.1726 33.5767 85.8396 34.2067 85.1736C34.8547 84.5077 35.1787 83.5987 35.1787 82.4467Z" fill="#212529"/>
<path d="M58.5253 74.9139L49.0756 97.1344H44.1077L47.5636 89.4665L41.4347 74.9139H46.5916L50.0745 84.3367L53.5304 74.9139H58.5253Z" fill="#212529"/>
<path d="M65.9187 74.6979C66.9807 74.6979 67.9077 74.9139 68.6997 75.3459C69.5096 75.7779 70.1306 76.3448 70.5626 77.0468V74.9139H75.1795V89.9525C75.1795 91.3385 74.9005 92.5895 74.3425 93.7054C73.8025 94.8394 72.9656 95.7394 71.8316 96.4054C70.7156 97.0714 69.3206 97.4043 67.6467 97.4043C65.4147 97.4043 63.6058 96.8734 62.2198 95.8114C60.8338 94.7674 60.0419 93.3454 59.8439 91.5455H64.4068C64.5508 92.1215 64.8927 92.5715 65.4327 92.8955C65.9727 93.2374 66.6387 93.4084 67.4307 93.4084C68.3847 93.4084 69.1406 93.1294 69.6986 92.5715C70.2746 92.0315 70.5626 91.1585 70.5626 89.9525V87.8196C70.1126 88.5216 69.4916 89.0975 68.6997 89.5475C67.9077 89.9795 66.9807 90.1955 65.9187 90.1955C64.6767 90.1955 63.5518 89.8805 62.5438 89.2505C61.5358 88.6026 60.7348 87.6936 60.1409 86.5236C59.5649 85.3356 59.2769 83.9677 59.2769 82.4197C59.2769 80.8717 59.5649 79.5128 60.1409 78.3428C60.7348 77.1728 61.5358 76.2729 62.5438 75.6429C63.5518 75.0129 64.6767 74.6979 65.9187 74.6979ZM70.5626 82.4467C70.5626 81.2947 70.2386 80.3858 69.5906 79.7198C68.9606 79.0538 68.1867 78.7208 67.2687 78.7208C66.3507 78.7208 65.5677 79.0538 64.9197 79.7198C64.2898 80.3678 63.9748 81.2677 63.9748 82.4197C63.9748 83.5717 64.2898 84.4897 64.9197 85.1736C65.5677 85.8396 66.3507 86.1726 67.2687 86.1726C68.1867 86.1726 68.9606 85.8396 69.5906 85.1736C70.2386 84.5077 70.5626 83.5987 70.5626 82.4467Z" fill="#212529"/>
<path d="M83.1365 77.4248C83.6765 76.5968 84.3515 75.9489 85.1615 75.4809C85.9714 74.9949 86.8714 74.7519 87.8614 74.7519V79.6388H86.5924C85.4405 79.6388 84.5765 79.8908 84.0005 80.3948C83.4245 80.8807 83.1365 81.7447 83.1365 82.9867V89.9795H78.5196V74.9139H83.1365V77.4248Z" fill="#212529"/>
<path d="M96.926 90.1955C95.45 90.1955 94.1181 89.8805 92.9301 89.2505C91.7601 88.6206 90.8332 87.7206 90.1492 86.5506C89.4832 85.3806 89.1502 84.0127 89.1502 82.4467C89.1502 80.8987 89.4922 79.5398 90.1762 78.3698C90.8601 77.1818 91.7961 76.2729 92.9841 75.6429C94.1721 75.0129 95.504 74.6979 96.98 74.6979C98.456 74.6979 99.7879 75.0129 100.976 75.6429C102.164 76.2729 103.1 77.1818 103.784 78.3698C104.468 79.5398 104.81 80.8987 104.81 82.4467C104.81 83.9947 104.459 85.3626 103.757 86.5506C103.073 87.7206 102.128 88.6206 100.922 89.2505C99.7339 89.8805 98.402 90.1955 96.926 90.1955ZM96.926 86.1996C97.808 86.1996 98.555 85.8756 99.167 85.2276C99.7969 84.5797 100.112 83.6527 100.112 82.4467C100.112 81.2407 99.8059 80.3138 99.194 79.6658C98.6 79.0178 97.862 78.6938 96.98 78.6938C96.08 78.6938 95.333 79.0178 94.7391 79.6658C94.1451 80.2958 93.8481 81.2227 93.8481 82.4467C93.8481 83.6527 94.1361 84.5797 94.7121 85.2276C95.306 85.8756 96.044 86.1996 96.926 86.1996Z" fill="#212529"/>
<path d="M122.136 74.9139V89.9795H117.519V87.9276C117.051 88.5936 116.412 89.1335 115.602 89.5475C114.81 89.9435 113.928 90.1415 112.956 90.1415C111.804 90.1415 110.787 89.8895 109.905 89.3855C109.023 88.8636 108.339 88.1166 107.853 87.1446C107.367 86.1726 107.124 85.0296 107.124 83.7157V74.9139H111.714V83.0947C111.714 84.1027 111.975 84.8856 112.497 85.4436C113.019 86.0016 113.721 86.2806 114.603 86.2806C115.503 86.2806 116.214 86.0016 116.736 85.4436C117.258 84.8856 117.519 84.1027 117.519 83.0947V74.9139H122.136Z" fill="#212529"/>
<path d="M134.632 74.7519C136.396 74.7519 137.8 75.3279 138.844 76.4798C139.906 77.6138 140.437 79.1798 140.437 81.1777V89.9795H135.847V81.7987C135.847 80.7907 135.586 80.0078 135.064 79.4498C134.542 78.8918 133.84 78.6128 132.958 78.6128C132.076 78.6128 131.374 78.8918 130.852 79.4498C130.33 80.0078 130.069 80.7907 130.069 81.7987V89.9795H125.452V74.9139H130.069V76.9118C130.537 76.2459 131.167 75.7239 131.959 75.3459C132.751 74.9499 133.642 74.7519 134.632 74.7519Z" fill="#212529"/>
<path d="M142.727 82.4197C142.727 80.8717 143.015 79.5128 143.591 78.3428C144.185 77.1728 144.986 76.2729 145.994 75.6429C147.002 75.0129 148.127 74.6979 149.369 74.6979C150.359 74.6979 151.259 74.9049 152.069 75.3189C152.897 75.7329 153.545 76.2908 154.013 76.9928V70H158.63V89.9795H154.013V87.8196C153.581 88.5396 152.96 89.1155 152.15 89.5475C151.358 89.9795 150.431 90.1955 149.369 90.1955C148.127 90.1955 147.002 89.8805 145.994 89.2505C144.986 88.6026 144.185 87.6936 143.591 86.5236C143.015 85.3356 142.727 83.9677 142.727 82.4197ZM154.013 82.4467C154.013 81.2947 153.689 80.3858 153.041 79.7198C152.411 79.0538 151.637 78.7208 150.719 78.7208C149.801 78.7208 149.018 79.0538 148.37 79.7198C147.74 80.3678 147.425 81.2677 147.425 82.4197C147.425 83.5717 147.74 84.4897 148.37 85.1736C149.018 85.8396 149.801 86.1726 150.719 86.1726C151.637 86.1726 152.411 85.8396 153.041 85.1736C153.689 84.5077 154.013 83.5987 154.013 82.4467Z" fill="#212529"/>
<defs>
<clipPath id="clip0_325_13368">
<rect width="58" height="58" fill="white" transform="translate(50.3145)"/>
</clipPath>
</defs>
</svg>
