<svg width="150" height="30" viewBox="0 0 150 30" fill="none" xmlns="http://www.w3.org/2000/svg">
<path d="M8.82645 24.8294L2.52122 25.9553C1.84566 26.1805 1.1701 25.5049 1.1701 24.8294L0.0441709 18.5242C-0.181016 17.8486 0.494544 17.173 1.1701 17.173L7.47533 16.0471C8.15089 15.8219 8.82645 16.4975 8.82645 17.173L9.95238 23.4783C9.95238 24.1538 9.50201 24.8294 8.82645 24.8294Z" fill="#3B8AF4"/>
<path d="M16.933 25.5035H16.7078C14.0055 25.5035 11.7537 23.2516 11.7537 20.5494V20.3242C11.7537 17.622 14.0055 15.3701 16.7078 15.3701H16.933C19.6352 15.3701 21.8871 17.622 21.8871 20.3242V20.5494C21.6619 23.2516 19.6352 25.5035 16.933 25.5035Z" fill="#FFB819"/>
<path d="M8.82629 4.33778L1.16995 12.4445C0.494389 13.1201 0.944761 14.4712 2.07069 14.4712L18.5093 12.8949C19.6352 12.8949 19.8604 11.5438 19.1849 10.8682L10.4026 4.33778C9.95223 3.88741 9.27667 3.88741 8.82629 4.33778Z" fill="#F73131"/>
<path d="M41.8272 12.48C41.8272 13.2933 41.6405 14.04 41.2672 14.72C40.8939 15.3867 40.3205 15.9267 39.5472 16.34C38.7739 16.7533 37.8139 16.96 36.6672 16.96H34.5472V22H31.1272V7.96H36.6672C37.7872 7.96 38.7339 8.15333 39.5072 8.54C40.2805 8.92667 40.8605 9.46 41.2472 10.14C41.6339 10.82 41.8272 11.6 41.8272 12.48ZM36.4072 14.24C37.0605 14.24 37.5472 14.0867 37.8672 13.78C38.1872 13.4733 38.3472 13.04 38.3472 12.48C38.3472 11.92 38.1872 11.4867 37.8672 11.18C37.5472 10.8733 37.0605 10.72 36.4072 10.72H34.5472V14.24H36.4072ZM47.0277 7.2V22H43.6077V7.2H47.0277ZM48.8261 16.4C48.8261 15.2533 49.0394 14.2467 49.4661 13.38C49.9061 12.5133 50.4994 11.8467 51.2461 11.38C51.9928 10.9133 52.8261 10.68 53.7461 10.68C54.5328 10.68 55.2194 10.84 55.8061 11.16C56.4061 11.48 56.8661 11.9 57.1861 12.42V10.84H60.6061V22H57.1861V20.42C56.8528 20.94 56.3861 21.36 55.7861 21.68C55.1994 22 54.5128 22.16 53.7261 22.16C52.8194 22.16 51.9928 21.9267 51.2461 21.46C50.4994 20.98 49.9061 20.3067 49.4661 19.44C49.0394 18.56 48.8261 17.5467 48.8261 16.4ZM57.1861 16.42C57.1861 15.5667 56.9461 14.8933 56.4661 14.4C55.9994 13.9067 55.4261 13.66 54.7461 13.66C54.0661 13.66 53.4861 13.9067 53.0061 14.4C52.5394 14.88 52.3061 15.5467 52.3061 16.4C52.3061 17.2533 52.5394 17.9333 53.0061 18.44C53.4861 18.9333 54.0661 19.18 54.7461 19.18C55.4261 19.18 55.9994 18.9333 56.4661 18.44C56.9461 17.9467 57.1861 17.2733 57.1861 16.42ZM74.4803 10.84L67.4803 27.3H63.8003L66.3603 21.62L61.8203 10.84H65.6403L68.2203 17.82L70.7803 10.84H74.4803ZM79.9571 10.68C80.7437 10.68 81.4304 10.84 82.0171 11.16C82.6171 11.48 83.0771 11.9 83.3971 12.42V10.84H86.8171V21.98C86.8171 23.0067 86.6104 23.9333 86.1971 24.76C85.7971 25.6 85.1771 26.2667 84.3371 26.76C83.5104 27.2533 82.4771 27.5 81.2371 27.5C79.5837 27.5 78.2437 27.1067 77.2171 26.32C76.1904 25.5467 75.6037 24.4933 75.4571 23.16H78.8371C78.9437 23.5867 79.1971 23.92 79.5971 24.16C79.9971 24.4133 80.4904 24.54 81.0771 24.54C81.7837 24.54 82.3437 24.3333 82.7571 23.92C83.1837 23.52 83.3971 22.8733 83.3971 21.98V20.4C83.0637 20.92 82.6037 21.3467 82.0171 21.68C81.4304 22 80.7437 22.16 79.9571 22.16C79.0371 22.16 78.2037 21.9267 77.4571 21.46C76.7104 20.98 76.1171 20.3067 75.6771 19.44C75.2504 18.56 75.0371 17.5467 75.0371 16.4C75.0371 15.2533 75.2504 14.2467 75.6771 13.38C76.1171 12.5133 76.7104 11.8467 77.4571 11.38C78.2037 10.9133 79.0371 10.68 79.9571 10.68ZM83.3971 16.42C83.3971 15.5667 83.1571 14.8933 82.6771 14.4C82.2104 13.9067 81.6371 13.66 80.9571 13.66C80.2771 13.66 79.6971 13.9067 79.2171 14.4C78.7504 14.88 78.5171 15.5467 78.5171 16.4C78.5171 17.2533 78.7504 17.9333 79.2171 18.44C79.6971 18.9333 80.2771 19.18 80.9571 19.18C81.6371 19.18 82.2104 18.9333 82.6771 18.44C83.1571 17.9467 83.3971 17.2733 83.3971 16.42ZM92.7113 12.7C93.1113 12.0867 93.6113 11.6067 94.2113 11.26C94.8113 10.9 95.4779 10.72 96.2113 10.72V14.34H95.2713C94.4179 14.34 93.7779 14.5267 93.3513 14.9C92.9246 15.26 92.7113 15.9 92.7113 16.82V22H89.2913V10.84H92.7113V12.7ZM102.926 22.16C101.833 22.16 100.846 21.9267 99.966 21.46C99.0993 20.9933 98.4126 20.3267 97.906 19.46C97.4126 18.5933 97.166 17.58 97.166 16.42C97.166 15.2733 97.4193 14.2667 97.926 13.4C98.4326 12.52 99.126 11.8467 100.006 11.38C100.886 10.9133 101.873 10.68 102.966 10.68C104.059 10.68 105.046 10.9133 105.926 11.38C106.806 11.8467 107.499 12.52 108.006 13.4C108.513 14.2667 108.766 15.2733 108.766 16.42C108.766 17.5667 108.506 18.58 107.986 19.46C107.479 20.3267 106.779 20.9933 105.886 21.46C105.006 21.9267 104.019 22.16 102.926 22.16ZM102.926 19.2C103.579 19.2 104.133 18.96 104.586 18.48C105.053 18 105.286 17.3133 105.286 16.42C105.286 15.5267 105.059 14.84 104.606 14.36C104.166 13.88 103.619 13.64 102.966 13.64C102.299 13.64 101.746 13.88 101.306 14.36C100.866 14.8267 100.646 15.5133 100.646 16.42C100.646 17.3133 100.859 18 101.286 18.48C101.726 18.96 102.273 19.2 102.926 19.2ZM121.6 10.84V22H118.18V20.48C117.834 20.9733 117.36 21.3733 116.76 21.68C116.174 21.9733 115.52 22.12 114.8 22.12C113.947 22.12 113.194 21.9333 112.54 21.56C111.887 21.1733 111.38 20.62 111.02 19.9C110.66 19.18 110.48 18.3333 110.48 17.36V10.84H113.88V16.9C113.88 17.6467 114.074 18.2267 114.46 18.64C114.847 19.0533 115.367 19.26 116.02 19.26C116.687 19.26 117.214 19.0533 117.6 18.64C117.987 18.2267 118.18 17.6467 118.18 16.9V10.84H121.6ZM130.857 10.72C132.164 10.72 133.204 11.1467 133.977 12C134.764 12.84 135.157 14 135.157 15.48V22H131.757V15.94C131.757 15.1933 131.564 14.6133 131.177 14.2C130.79 13.7867 130.27 13.58 129.617 13.58C128.964 13.58 128.444 13.7867 128.057 14.2C127.67 14.6133 127.477 15.1933 127.477 15.94V22H124.057V10.84H127.477V12.32C127.824 11.8267 128.29 11.44 128.877 11.16C129.464 10.8667 130.124 10.72 130.857 10.72ZM136.853 16.4C136.853 15.2533 137.067 14.2467 137.493 13.38C137.933 12.5133 138.527 11.8467 139.273 11.38C140.02 10.9133 140.853 10.68 141.773 10.68C142.507 10.68 143.173 10.8333 143.773 11.14C144.387 11.4467 144.867 11.86 145.213 12.38V7.2H148.633V22H145.213V20.4C144.893 20.9333 144.433 21.36 143.833 21.68C143.247 22 142.56 22.16 141.773 22.16C140.853 22.16 140.02 21.9267 139.273 21.46C138.527 20.98 137.933 20.3067 137.493 19.44C137.067 18.56 136.853 17.5467 136.853 16.4ZM145.213 16.42C145.213 15.5667 144.973 14.8933 144.493 14.4C144.027 13.9067 143.453 13.66 142.773 13.66C142.093 13.66 141.513 13.9067 141.033 14.4C140.567 14.88 140.333 15.5467 140.333 16.4C140.333 17.2533 140.567 17.9333 141.033 18.44C141.513 18.9333 142.093 19.18 142.773 19.18C143.453 19.18 144.027 18.9333 144.493 18.44C144.973 17.9467 145.213 17.2733 145.213 16.42Z" fill="#212529"/>
</svg>
