<?xml version="1.0" encoding="utf-8"?>
<!-- Generator: Adobe Illustrator 26.4.1, SVG Export Plug-In . SVG Version: 6.00 Build 0)  -->
<svg version="1.1" id="Layer_1" xmlns="http://www.w3.org/2000/svg" xmlns:xlink="http://www.w3.org/1999/xlink" x="0px" y="0px"
	 viewBox="0 0 63.7 11.2" style="enable-background:new 0 0 63.7 11.2;" xml:space="preserve">
<style type="text/css">
	.st0{fill:#212529;}
</style>
<g>
	<path class="st0" d="M5.6,4.1C5.4,4.5,5.1,4.8,4.6,5C4.2,5.3,3.7,5.4,3,5.4H1.9v2.8H0V0.4h3c0.6,0,1.1,0.1,1.6,0.3
		C5,1,5.4,1.2,5.6,1.6s0.3,0.8,0.3,1.3C5.9,3.4,5.8,3.8,5.6,4.1z M3.7,3.6C3.9,3.5,4,3.2,4,2.9c0-0.3-0.1-0.5-0.3-0.7
		C3.5,2,3.3,1.9,2.9,1.9h-1v1.9h1C3.3,3.9,3.5,3.8,3.7,3.6z"/>
	<path class="st0" d="M8.6,0v8.1H6.8V0H8.6z"/>
	<path class="st0" d="M9.9,3.4c0.2-0.5,0.6-0.8,1-1.1c0.4-0.3,0.9-0.4,1.4-0.4c0.4,0,0.8,0.1,1.1,0.3s0.6,0.4,0.8,0.7V2H16v6.1h-1.9
		V7.3c-0.2,0.3-0.4,0.5-0.8,0.7s-0.7,0.3-1.1,0.3c-0.5,0-1-0.1-1.4-0.4c-0.4-0.3-0.7-0.6-1-1.1c-0.2-0.5-0.4-1-0.4-1.7
		S9.6,3.9,9.9,3.4z M13.7,4c-0.3-0.3-0.6-0.4-1-0.4s-0.7,0.1-1,0.4c-0.3,0.3-0.4,0.6-0.4,1.1c0,0.5,0.1,0.8,0.4,1.1
		c0.3,0.3,0.6,0.4,1,0.4s0.7-0.1,1-0.4c0.3-0.3,0.4-0.6,0.4-1.1C14.1,4.6,14,4.2,13.7,4z"/>
	<path class="st0" d="M23.5,2l-3.9,9.1h-2l1.4-3.1L16.6,2h2.1l1.4,3.8L21.5,2H23.5z"/>
	<path class="st0" d="M27.6,2.2c0.3,0.2,0.6,0.4,0.8,0.7V2h1.9v6.1c0,0.6-0.1,1.1-0.3,1.5s-0.6,0.8-1,1.1c-0.5,0.3-1,0.4-1.7,0.4
		c-0.9,0-1.6-0.2-2.2-0.6c-0.6-0.4-0.9-1-1-1.7h1.9C25.9,9,26,9.2,26.2,9.3c0.2,0.1,0.5,0.2,0.8,0.2c0.4,0,0.7-0.1,0.9-0.3
		c0.2-0.2,0.3-0.6,0.3-1.1V7.3c-0.2,0.3-0.4,0.5-0.8,0.7c-0.3,0.2-0.7,0.3-1.1,0.3c-0.5,0-1-0.1-1.4-0.4c-0.4-0.3-0.7-0.6-1-1.1
		c-0.2-0.5-0.4-1-0.4-1.7s0.1-1.2,0.4-1.7s0.6-0.8,1-1.1c0.4-0.3,0.9-0.4,1.4-0.4C26.9,1.9,27.2,2,27.6,2.2z M27.9,4
		c-0.3-0.3-0.6-0.4-1-0.4S26.3,3.7,26,4c-0.3,0.3-0.4,0.6-0.4,1.1c0,0.5,0.1,0.8,0.4,1.1c0.3,0.3,0.6,0.4,1,0.4s0.7-0.1,1-0.4
		c0.3-0.3,0.4-0.6,0.4-1.1C28.3,4.6,28.2,4.2,27.9,4z"/>
	<path class="st0" d="M34.2,2.2c0.3-0.2,0.7-0.3,1.1-0.3v2h-0.5c-0.5,0-0.8,0.1-1.1,0.3c-0.2,0.2-0.4,0.6-0.4,1.1v2.8h-1.9V2h1.9v1
		C33.6,2.7,33.8,2.4,34.2,2.2z"/>
	<path class="st0" d="M37.2,7.8c-0.5-0.3-0.9-0.6-1.1-1.1c-0.3-0.5-0.4-1-0.4-1.7c0-0.6,0.1-1.2,0.4-1.7c0.3-0.5,0.7-0.8,1.1-1.1
		c0.5-0.3,1-0.4,1.6-0.4S40,2,40.5,2.3s0.9,0.6,1.1,1.1c0.3,0.5,0.4,1,0.4,1.7c0,0.6-0.1,1.2-0.4,1.7S41,7.6,40.5,7.8
		s-1,0.4-1.6,0.4C38.2,8.2,37.7,8.1,37.2,7.8z M39.8,6.2c0.3-0.3,0.4-0.6,0.4-1.1c0-0.5-0.1-0.9-0.4-1.1c-0.2-0.3-0.5-0.4-0.9-0.4
		c-0.4,0-0.7,0.1-0.9,0.4c-0.2,0.3-0.4,0.6-0.4,1.1c0,0.5,0.1,0.9,0.4,1.1c0.2,0.3,0.5,0.4,0.9,0.4S39.5,6.5,39.8,6.2z"/>
	<path class="st0" d="M49,2v6.1h-1.9V7.3c-0.2,0.3-0.4,0.5-0.8,0.7c-0.3,0.2-0.7,0.2-1.1,0.2c-0.5,0-0.9-0.1-1.2-0.3
		S43.4,7.4,43.2,7c-0.2-0.4-0.3-0.9-0.3-1.4V2h1.9v3.3c0,0.4,0.1,0.7,0.3,1c0.2,0.2,0.5,0.3,0.9,0.3c0.4,0,0.7-0.1,0.9-0.3
		c0.2-0.2,0.3-0.5,0.3-1V2H49z"/>
	<path class="st0" d="M55.7,2.6c0.4,0.5,0.6,1.1,0.6,1.9v3.6h-1.9V4.8c0-0.4-0.1-0.7-0.3-1c-0.2-0.2-0.5-0.3-0.9-0.3
		s-0.6,0.1-0.9,0.3c-0.2,0.2-0.3,0.5-0.3,1v3.3h-1.9V2h1.9v0.8c0.2-0.3,0.4-0.5,0.8-0.6C53.2,2,53.6,1.9,54,1.9
		C54.7,1.9,55.3,2.2,55.7,2.6z"/>
	<path class="st0" d="M57.5,3.4c0.2-0.5,0.6-0.8,1-1.1c0.4-0.3,0.9-0.4,1.4-0.4c0.4,0,0.8,0.1,1.1,0.3c0.3,0.2,0.6,0.4,0.8,0.7V0
		h1.9v8.1h-1.9V7.3C61.6,7.6,61.3,7.8,61,8s-0.7,0.3-1.1,0.3c-0.5,0-1-0.1-1.4-0.4c-0.4-0.3-0.7-0.6-1-1.1c-0.2-0.5-0.4-1-0.4-1.7
		S57.3,3.9,57.5,3.4z M61.4,4c-0.3-0.3-0.6-0.4-1-0.4s-0.7,0.1-1,0.4c-0.3,0.3-0.4,0.6-0.4,1.1c0,0.5,0.1,0.8,0.4,1.1
		c0.3,0.3,0.6,0.4,1,0.4s0.7-0.1,1-0.4c0.3-0.3,0.4-0.6,0.4-1.1C61.8,4.6,61.6,4.2,61.4,4z"/>
</g>
</svg>
