<svg width="18" height="24" viewBox="0 0 18 24" fill="none" xmlns="http://www.w3.org/2000/svg">
<g id="Group 37 1" clip-path="url(#clip0_1151_22084)">
<path id="Vector" d="M0.441311 17.6963C0.197624 17.4526 0.197623 17.0575 0.44131 16.8138L8.18593 9.06924C8.42962 8.82555 8.82471 8.82555 9.0684 9.06924L14.2813 14.2821C14.525 14.5258 14.525 14.9209 14.2813 15.1646L6.53668 22.9092C6.29299 23.1529 5.8979 23.1529 5.65421 22.9092L0.441311 17.6963Z" fill="#ADB5BD"/>
<path id="Vector_2" d="M15.1993 16.4412L10.5573 21.0832C10.3136 21.3269 10.3136 21.722 10.5573 21.9656L11.9238 23.3321C12.1674 23.5758 12.5625 23.5758 12.8062 23.3321L17.4482 18.6901C17.6919 18.4464 17.6919 18.0513 17.4482 17.8076L16.0818 16.4412C15.8381 16.1975 15.443 16.1975 15.1993 16.4412Z" fill="#ADB5BD"/>
<path id="Vector_3" d="M15.4115 1.49254L9.91431 7.19327C9.7988 7.31305 9.79763 7.50242 9.91166 7.62362L15.4088 13.4668C15.6024 13.6726 15.9481 13.5356 15.9481 13.253V1.70911C15.9481 1.4284 15.6063 1.29048 15.4115 1.49254Z" fill="#ADB5BD"/>
<path id="Vector_4" d="M1.82066 1.49254L7.31778 7.19327C7.43329 7.31305 7.43446 7.50242 7.32044 7.62362L1.82331 13.4668C1.62969 13.6726 1.28406 13.5356 1.28406 13.253V1.70911C1.28406 1.4284 1.62581 1.29048 1.82066 1.49254Z" fill="#ADB5BD"/>
<path id="Vector_5" d="M8.39541 6.01938L2.90865 0.532617C2.71211 0.336068 2.85131 0 3.12927 0H14.1028C14.3808 0 14.52 0.336068 14.3234 0.532617L8.83665 6.01938C8.7148 6.14122 8.51726 6.14122 8.39541 6.01938Z" fill="#ADB5BD"/>
</g>
<defs>
<clipPath id="clip0_1151_22084">
<rect width="18" height="24" fill="white"/>
</clipPath>
</defs>
</svg>
