<svg width="100" height="80" viewBox="0 0 100 80" fill="none" xmlns="http://www.w3.org/2000/svg">
<rect width="100" height="80" fill="#F5BEBE"/>
<g clip-path="url(#clip0_1151_21067)">
<path fill-rule="evenodd" clip-rule="evenodd" d="M60.6419 22.4305C60.6419 20.3378 62.3479 18.6318 64.4438 18.6318C66.5365 18.6318 68.2425 20.3378 68.2425 22.4305C68.2425 24.5231 66.5365 26.2291 64.4438 26.2291C62.3479 26.2291 60.6419 24.5231 60.6419 22.4305ZM31.7973 26.2291C33.8899 26.2291 35.5959 24.5231 35.5959 22.4305C35.5959 20.3378 33.8899 18.6318 31.7973 18.6318C29.7046 18.6318 27.9954 20.3378 27.9954 22.4305C27.9954 24.5231 29.7035 26.2291 31.7973 26.2291ZM26.261 32.371V37.8265H37.3325V32.371C37.3325 31.7703 37.5465 31.2504 37.9736 30.8256L42.8469 25.9522C43.63 25.1691 43.63 23.8836 42.8469 23.0973C42.0605 22.3142 40.7761 22.3142 39.9898 23.0973L34.4698 28.6205C34.0428 29.0475 33.5251 29.2616 32.9255 29.2616H30.6701C30.0694 29.2616 29.5528 29.0475 29.1258 28.6205L23.6015 23.0984C22.8184 22.3153 21.5329 22.3153 20.7465 23.0984C19.9634 23.8847 19.9634 25.1691 20.7465 25.9533L25.6209 30.8267C26.0447 31.2504 26.261 31.7703 26.261 32.371ZM75.4902 23.0984C74.7071 22.3153 73.4216 22.3153 72.6352 23.0984L67.112 28.6215C66.6883 29.0486 66.1706 29.2627 65.5699 29.2627H63.3156C62.7116 29.2627 62.195 29.0486 61.7712 28.6215L56.2491 23.0984C55.4628 22.3153 54.1784 22.3153 53.3942 23.0984C52.6078 23.8847 52.6078 25.1691 53.3942 25.9533L58.2675 30.8267C58.6913 31.2504 58.9053 31.7714 58.9053 32.3721V37.8276H69.9801V32.371C69.9801 31.7703 70.1942 31.2504 70.618 30.8256L75.4913 25.9522C76.2766 25.1702 76.2766 23.8847 75.4902 23.0984ZM74.3511 42.2708H21.89C21.4226 42.2708 21.0414 42.652 21.0414 43.1161V46.088C21.0414 46.5522 21.4226 46.9333 21.89 46.9333H74.3511C74.8152 46.9333 75.1964 46.5522 75.1964 46.088V43.1161C75.1964 42.652 74.8152 42.2708 74.3511 42.2708Z" fill="#FFE5E5"/>
<path d="M44.6611 45.6001H51.5068L56.844 54.8484C57.112 55.3113 57.112 55.8442 56.844 56.3101C56.577 56.773 56.1162 57.0409 55.5782 57.0409H40.5866C40.0517 57.0409 39.5909 56.773 39.3209 56.3101C39.0529 55.8442 39.0529 55.3113 39.3209 54.8484L44.6611 45.6001Z" fill="#FFE5E5"/>
</g>
<defs>
<clipPath id="clip0_1151_21067">
<rect width="55.92" height="55.92" fill="white" transform="translate(20.1602 12.48)"/>
</clipPath>
</defs>
</svg>
