<svg width="100" height="80" viewBox="0 0 100 80" fill="none" xmlns="http://www.w3.org/2000/svg">
<rect width="100" height="80" fill="#EFDC74"/>
<path d="M29.0383 41.6089H39.9037V55.7998C39.9037 57.1483 38.8099 58.2421 37.4614 58.2421H31.4807C30.1322 58.2421 29.0383 57.1483 29.0383 55.7998V41.6089Z" fill="#FFF6C6"/>
<path d="M31.8849 28.7041H37.0557C39.7515 28.7041 41.9403 30.893 41.9403 33.5887V42.3712C41.9403 43.7197 40.8465 44.8135 39.498 44.8135H29.4426C28.0941 44.8135 27.0002 43.7197 27.0002 42.3712V33.5887C27.0002 30.893 29.1891 28.7041 31.8849 28.7041Z" fill="#FFF6C6"/>
<path d="M34.4702 26.4243C37.4703 26.4243 39.9024 23.9923 39.9024 20.9922C39.9024 17.9921 37.4703 15.5601 34.4702 15.5601C31.4701 15.5601 29.0381 17.9921 29.0381 20.9922C29.0381 23.9923 31.4701 26.4243 34.4702 26.4243Z" fill="#FFF6C6"/>
<path d="M57.0383 41.6089H67.9037V55.7998C67.9037 57.1483 66.8099 58.2421 65.4614 58.2421H59.4807C58.1322 58.2421 57.0383 57.1483 57.0383 55.7998V41.6089Z" fill="#FFF6C6"/>
<path d="M59.8849 28.7041H65.0557C67.7515 28.7041 69.9403 30.893 69.9403 33.5887V42.3712C69.9403 43.7197 68.8465 44.8135 67.498 44.8135H57.4426C56.0941 44.8135 55.0002 43.7197 55.0002 42.3712V33.5887C55.0002 30.893 57.1891 28.7041 59.8849 28.7041Z" fill="#FFF6C6"/>
<path d="M62.4702 26.4243C65.4703 26.4243 67.9024 23.9923 67.9024 20.9922C67.9024 17.9921 65.4703 15.5601 62.4702 15.5601C59.4701 15.5601 57.0381 17.9921 57.0381 20.9922C57.0381 23.9923 59.4701 26.4243 62.4702 26.4243Z" fill="#FFF6C6"/>
</svg>
