<svg width="100" height="80" viewBox="0 0 100 80" fill="none" xmlns="http://www.w3.org/2000/svg">
<rect width="100" height="80" fill="#91C0FF"/>
<path d="M21.6324 17C17.1139 17 13.4399 20.6739 13.4399 25.1925C13.4399 28.4864 17.5784 34.1028 20.0277 37.1011C20.4078 37.5656 20.999 37.8613 21.6324 37.8613C22.2659 37.8613 22.8148 37.5656 23.2371 37.1011C25.6442 34.0606 29.7826 28.4864 29.7826 25.1925C29.7826 20.6739 26.1087 17 21.6324 17ZM21.6324 28.3174C19.9053 28.3174 18.5075 26.9196 18.5075 25.1925C18.5075 23.4653 19.9053 22.0675 21.6324 22.0675C23.3596 22.0675 24.7574 23.4653 24.7574 25.1925C24.7574 26.9196 23.3596 28.3174 21.6324 28.3174Z" fill="#CDE2FF"/>
<path d="M76.4674 36.8188C71.9488 36.8188 68.2749 40.4928 68.2749 45.0113C68.2749 48.3052 72.4134 53.9217 74.8627 56.92C75.2427 57.3845 75.8339 57.6801 76.4674 57.6801C77.1008 57.6801 77.6498 57.3845 78.0721 56.92C80.4792 53.8795 84.6176 48.3052 84.6176 45.0113C84.6176 40.4928 80.9437 36.8188 76.4674 36.8188ZM76.4674 48.1363C74.7402 48.1363 73.3424 46.7385 73.3424 45.0113C73.3424 43.2841 74.7402 41.8864 76.4674 41.8864C78.1945 41.8864 79.5924 43.2841 79.5924 45.0113C79.5924 46.7385 78.1945 48.1363 76.4674 48.1363Z" fill="#CDE2FF"/>
<path d="M63.3154 54H43.457C40.8541 54 38.7441 51.9853 38.7441 49.5C38.7441 47.0148 40.8541 45 43.457 45H48.3279C50.9307 45 53.0408 42.9853 53.0408 40.5C53.0408 38.0147 50.9307 36 48.3279 36H33.9996" stroke="#CDE2FF" stroke-width="3.7" stroke-miterlimit="10" stroke-linecap="round"/>
</svg>
