<svg width="17" height="16" viewBox="0 0 17 16" fill="none" xmlns="http://www.w3.org/2000/svg">
<g id="siren_24dp_E8EAED_FILL1_wght400_GRAD0_opsz24 1">
<path id="Vector" d="M5.83337 8.66667H7.16671V6.66667C7.16671 6.3 7.29726 5.98611 7.55837 5.725C7.81948 5.46389 8.13337 5.33333 8.50004 5.33333V4C7.76671 4 7.13893 4.26111 6.61671 4.78333C6.09448 5.30556 5.83337 5.93333 5.83337 6.66667V8.66667ZM3.16671 14C2.80004 14 2.48615 13.8694 2.22504 13.6083C1.96393 13.3472 1.83337 13.0333 1.83337 12.6667V11.3333C1.83337 10.9667 1.96393 10.6528 2.22504 10.3917C2.48615 10.1306 2.80004 10 3.16671 10H3.83337V6.66667C3.83337 5.36667 4.28615 4.26389 5.19171 3.35833C6.09726 2.45278 7.20004 2 8.50004 2C9.80004 2 10.9028 2.45278 11.8084 3.35833C12.7139 4.26389 13.1667 5.36667 13.1667 6.66667V10H13.8334C14.2 10 14.5139 10.1306 14.775 10.3917C15.0362 10.6528 15.1667 10.9667 15.1667 11.3333V12.6667C15.1667 13.0333 15.0362 13.3472 14.775 13.6083C14.5139 13.8694 14.2 14 13.8334 14H3.16671Z" fill="#EE6363"/>
</g>
</svg>
