<svg width="16" height="16" viewBox="0 0 16 16" fill="none" xmlns="http://www.w3.org/2000/svg">
<g id="Icon/Solid/cog">
<path id="Icon" fill-rule="evenodd" clip-rule="evenodd" d="M9.19148 2.53832C8.88826 1.28931 7.11194 1.28931 6.80872 2.53832C6.61285 3.34516 5.68846 3.72805 4.97943 3.29603C3.88184 2.62726 2.6258 3.88331 3.29457 4.98089C3.72659 5.68992 3.34369 6.61431 2.53685 6.81019C1.28785 7.1134 1.28785 8.88972 2.53685 9.19294C3.34369 9.38881 3.72659 10.3132 3.29457 11.0222C2.6258 12.1198 3.88184 13.3759 4.97943 12.7071C5.68846 12.2751 6.61285 12.658 6.80872 13.4648C7.11194 14.7138 8.88826 14.7138 9.19148 13.4648C9.38735 12.658 10.3117 12.2751 11.0208 12.7071C12.1184 13.3759 13.3744 12.1198 12.7056 11.0222C12.2736 10.3132 12.6565 9.38881 13.4633 9.19294C14.7123 8.88972 14.7123 7.1134 13.4633 6.81019C12.6565 6.61431 12.2736 5.68992 12.7056 4.98089C13.3744 3.88331 12.1184 2.62726 11.0208 3.29603C10.3117 3.72805 9.38735 3.34516 9.19148 2.53832ZM8.0001 10.4016C9.32558 10.4016 10.4001 9.32705 10.4001 8.00156C10.4001 6.67608 9.32558 5.60156 8.0001 5.60156C6.67461 5.60156 5.6001 6.67608 5.6001 8.00156C5.6001 9.32705 6.67461 10.4016 8.0001 10.4016Z" fill="#99A3AD"/>
</g>
</svg>
