<svg width="16" height="16" viewBox="0 0 16 16" fill="none" xmlns="http://www.w3.org/2000/svg">
<path d="M7.46656 15C6.34656 15 5.50656 14.6267 4.75989 13.88C4.01323 13.1333 3.63989 12.2 3.63989 11.1733C3.63989 10.52 3.73323 9.96 4.01323 9.4C4.29323 8.84 4.66656 8.37333 5.13323 8V3.33333C5.13323 2.68 5.31989 2.12 5.78656 1.65333C6.25323 1.18667 6.81323 1 7.46656 1C8.11989 1 8.67989 1.18667 9.14656 1.65333C9.61322 2.12 9.79989 2.68 9.79989 3.33333V8C10.2666 8.37333 10.6399 8.84 10.9199 9.4C11.1999 9.96 11.2932 10.52 11.2932 11.1733C11.2932 12.2933 10.9199 13.1333 10.1732 13.88C9.42656 14.6267 8.58656 15 7.46656 15ZM5.13323 11.08H9.79989C9.79989 10.7067 9.70656 10.3333 9.51989 10.0533C9.33323 9.77333 9.14656 9.49333 8.86656 9.21333L8.21323 8.74667V3.33333C8.21323 3.14667 8.11989 2.96 8.02656 2.77333C7.83989 2.58667 7.65322 2.58667 7.46656 2.58667C7.27989 2.58667 7.09323 2.68 6.90656 2.77333C6.81323 2.96 6.71989 3.14667 6.71989 3.33333V8.74667L6.06656 9.21333C5.78656 9.4 5.50656 9.68 5.41323 10.0533C5.22656 10.4267 5.13323 10.7067 5.13323 11.08Z" fill="#F6A22E"/>
</svg>
